<svg width="118" height="25" viewBox="0 0 118 25" fill="none" xmlns="http://www.w3.org/2000/svg">
<path d="M0.12 12.8C0.12 10.6027 0.610667 8.64 1.592 6.912C2.59467 5.16267 3.94933 3.808 5.656 2.848C7.384 1.86667 9.31467 1.376 11.448 1.376C13.944 1.376 16.1307 2.016 18.008 3.296C19.8853 4.576 21.1973 6.34667 21.944 8.608H16.792C16.28 7.54133 15.5547 6.74133 14.616 6.208C13.6987 5.67467 12.632 5.408 11.416 5.408C10.1147 5.408 8.952 5.71733 7.928 6.336C6.92533 6.93333 6.136 7.78667 5.56 8.896C5.00533 10.0053 4.728 11.3067 4.728 12.8C4.728 14.272 5.00533 15.5733 5.56 16.704C6.136 17.8133 6.92533 18.6773 7.928 19.296C8.952 19.8933 10.1147 20.192 11.416 20.192C12.632 20.192 13.6987 19.9253 14.616 19.392C15.5547 18.8373 16.28 18.0267 16.792 16.96H21.944C21.1973 19.2427 19.8853 21.024 18.008 22.304C16.152 23.5627 13.9653 24.192 11.448 24.192C9.31467 24.192 7.384 23.712 5.656 22.752C3.94933 21.7707 2.59467 20.416 1.592 18.688C0.610667 16.96 0.12 14.9973 0.12 12.8ZM24.6185 15.072C24.6185 13.28 24.9705 11.6907 25.6745 10.304C26.3998 8.91733 27.3705 7.85067 28.5865 7.104C29.8238 6.35733 31.1998 5.984 32.7145 5.984C34.0372 5.984 35.1892 6.25067 36.1705 6.784C37.1732 7.31733 37.9732 7.98933 38.5705 8.8V6.272H43.0825V24H38.5705V21.408C37.9945 22.24 37.1945 22.9333 36.1705 23.488C35.1678 24.0213 34.0052 24.288 32.6825 24.288C31.1892 24.288 29.8238 23.904 28.5865 23.136C27.3705 22.368 26.3998 21.2907 25.6745 19.904C24.9705 18.496 24.6185 16.8853 24.6185 15.072ZM38.5705 15.136C38.5705 14.048 38.3572 13.12 37.9305 12.352C37.5038 11.5627 36.9278 10.9653 36.2025 10.56C35.4772 10.1333 34.6985 9.92 33.8665 9.92C33.0345 9.92 32.2665 10.1227 31.5625 10.528C30.8585 10.9333 30.2825 11.5307 29.8345 12.32C29.4078 13.088 29.1945 14.0053 29.1945 15.072C29.1945 16.1387 29.4078 17.0773 29.8345 17.888C30.2825 18.6773 30.8585 19.2853 31.5625 19.712C32.2878 20.1387 33.0558 20.352 33.8665 20.352C34.6985 20.352 35.4772 20.1493 36.2025 19.744C36.9278 19.3173 37.5038 18.72 37.9305 17.952C38.3572 17.1627 38.5705 16.224 38.5705 15.136ZM51.938 0.32V24H47.458V0.32H51.938ZM55.2122 15.136C55.2122 13.3013 55.5856 11.7013 56.3323 10.336C57.0789 8.94933 58.1136 7.88267 59.4363 7.136C60.7589 6.368 62.2736 5.984 63.9803 5.984C66.1776 5.984 67.9909 6.53867 69.4203 7.648C70.8709 8.736 71.8416 10.272 72.3323 12.256H67.5003C67.2443 11.488 66.8069 10.8907 66.1883 10.464C65.5909 10.016 64.8443 9.792 63.9483 9.792C62.6683 9.792 61.6549 10.2613 60.9083 11.2C60.1616 12.1173 59.7883 13.4293 59.7883 15.136C59.7883 16.8213 60.1616 18.1333 60.9083 19.072C61.6549 19.9893 62.6683 20.448 63.9483 20.448C65.7616 20.448 66.9456 19.6373 67.5003 18.016H72.3323C71.8416 19.936 70.8709 21.4613 69.4203 22.592C67.9696 23.7227 66.1563 24.288 63.9803 24.288C62.2736 24.288 60.7589 23.9147 59.4363 23.168C58.1136 22.4 57.0789 21.3333 56.3323 19.968C55.5856 18.5813 55.2122 16.9707 55.2122 15.136ZM85.9823 24.224C83.8916 24.224 81.9716 23.7333 80.2223 22.752C78.4729 21.7707 77.0863 20.416 76.0623 18.688C75.0383 16.9387 74.5263 14.9653 74.5263 12.768C74.5263 10.592 75.0383 8.64 76.0623 6.912C77.0863 5.16267 78.4729 3.79733 80.2223 2.816C81.9716 1.83467 83.8916 1.344 85.9823 1.344C88.0943 1.344 90.0143 1.83467 91.7423 2.816C93.4916 3.79733 94.8676 5.16267 95.8703 6.912C96.8943 8.64 97.4063 10.592 97.4063 12.768C97.4063 14.9653 96.8943 16.9387 95.8703 18.688C94.8676 20.416 93.4916 21.7707 91.7423 22.752C89.9929 23.7333 88.0729 24.224 85.9823 24.224ZM85.9823 20.224C87.3263 20.224 88.5103 19.9253 89.5343 19.328C90.5583 18.7093 91.3583 17.8347 91.9343 16.704C92.5103 15.5733 92.7983 14.2613 92.7983 12.768C92.7983 11.2747 92.5103 9.97333 91.9343 8.864C91.3583 7.73333 90.5583 6.86933 89.5343 6.272C88.5103 5.67467 87.3263 5.376 85.9823 5.376C84.6383 5.376 83.4436 5.67467 82.3983 6.272C81.3743 6.86933 80.5743 7.73333 79.9983 8.864C79.4223 9.97333 79.1343 11.2747 79.1343 12.768C79.1343 14.2613 79.4223 15.5733 79.9983 16.704C80.5743 17.8347 81.3743 18.7093 82.3983 19.328C83.4436 19.9253 84.6383 20.224 85.9823 20.224ZM110.563 6.016C112.675 6.016 114.382 6.688 115.683 8.032C116.985 9.35467 117.635 11.2107 117.635 13.6V24H113.155V14.208C113.155 12.8 112.803 11.7227 112.099 10.976C111.395 10.208 110.435 9.824 109.219 9.824C107.982 9.824 107.001 10.208 106.275 10.976C105.571 11.7227 105.219 12.8 105.219 14.208V24H100.739V6.272H105.219V8.48C105.817 7.712 106.574 7.11467 107.491 6.688C108.43 6.24 109.454 6.016 110.563 6.016Z" fill="white"/>
</svg>
